<mxfile host="app.diagrams.net" agent="Mozilla/5.0 (Windows NT 10.0; Win64; x64) AppleWebKit/537.36 (KHTML, like Gecko) Chrome/131.0.0.0 Safari/537.36" version="24.8.6" pages="2">
  <diagram id="oU2EmzCUuAfoSv13RaPH" name="Página-8">
    <mxGraphModel dx="1432" dy="792" grid="1" gridSize="10" guides="1" tooltips="1" connect="1" arrows="1" fold="1" page="1" pageScale="1" pageWidth="827" pageHeight="1169" math="0" shadow="0">
      <root>
        <mxCell id="0" />
        <mxCell id="1" parent="0" />
        <mxCell id="szAG_YBg8i103SoV509M-35" value="" style="whiteSpace=wrap;html=1;aspect=fixed;" parent="1" vertex="1">
          <mxGeometry x="570" y="570" width="500" height="500" as="geometry" />
        </mxCell>
        <mxCell id="szAG_YBg8i103SoV509M-5" style="edgeStyle=orthogonalEdgeStyle;rounded=0;orthogonalLoop=1;jettySize=auto;html=1;entryX=0;entryY=0.5;entryDx=0;entryDy=0;" parent="1" source="szAG_YBg8i103SoV509M-1" target="szAG_YBg8i103SoV509M-2" edge="1">
          <mxGeometry relative="1" as="geometry" />
        </mxCell>
        <mxCell id="szAG_YBg8i103SoV509M-1" value="Desarrollo&lt;div&gt;&lt;br&gt;&lt;/div&gt;" style="rounded=0;whiteSpace=wrap;html=1;" parent="1" vertex="1">
          <mxGeometry x="30" y="150" width="120" height="110" as="geometry" />
        </mxCell>
        <mxCell id="szAG_YBg8i103SoV509M-7" style="edgeStyle=orthogonalEdgeStyle;rounded=0;orthogonalLoop=1;jettySize=auto;html=1;entryX=0;entryY=0.5;entryDx=0;entryDy=0;" parent="1" source="szAG_YBg8i103SoV509M-2" target="szAG_YBg8i103SoV509M-6" edge="1">
          <mxGeometry relative="1" as="geometry" />
        </mxCell>
        <mxCell id="szAG_YBg8i103SoV509M-2" value="PR pre-develop" style="rounded=0;whiteSpace=wrap;html=1;" parent="1" vertex="1">
          <mxGeometry x="290" y="175" width="120" height="60" as="geometry" />
        </mxCell>
        <mxCell id="szAG_YBg8i103SoV509M-3" value="" style="shape=cylinder3;whiteSpace=wrap;html=1;boundedLbl=1;backgroundOutline=1;size=15;" parent="1" vertex="1">
          <mxGeometry x="320" width="60" height="80" as="geometry" />
        </mxCell>
        <mxCell id="szAG_YBg8i103SoV509M-4" style="edgeStyle=orthogonalEdgeStyle;rounded=0;orthogonalLoop=1;jettySize=auto;html=1;entryX=0.5;entryY=1;entryDx=0;entryDy=0;entryPerimeter=0;" parent="1" source="szAG_YBg8i103SoV509M-2" target="szAG_YBg8i103SoV509M-3" edge="1">
          <mxGeometry relative="1" as="geometry" />
        </mxCell>
        <mxCell id="szAG_YBg8i103SoV509M-6" value="Pr develop" style="rounded=0;whiteSpace=wrap;html=1;" parent="1" vertex="1">
          <mxGeometry x="460" y="175" width="120" height="60" as="geometry" />
        </mxCell>
        <mxCell id="szAG_YBg8i103SoV509M-8" style="edgeStyle=orthogonalEdgeStyle;rounded=0;orthogonalLoop=1;jettySize=auto;html=1;entryX=1;entryY=1;entryDx=0;entryDy=-15;entryPerimeter=0;" parent="1" source="szAG_YBg8i103SoV509M-6" target="szAG_YBg8i103SoV509M-3" edge="1">
          <mxGeometry relative="1" as="geometry">
            <Array as="points">
              <mxPoint x="520" y="65" />
            </Array>
          </mxGeometry>
        </mxCell>
        <mxCell id="szAG_YBg8i103SoV509M-10" style="edgeStyle=orthogonalEdgeStyle;rounded=0;orthogonalLoop=1;jettySize=auto;html=1;" parent="1" source="szAG_YBg8i103SoV509M-9" target="szAG_YBg8i103SoV509M-11" edge="1">
          <mxGeometry relative="1" as="geometry">
            <mxPoint x="210" y="360" as="targetPoint" />
          </mxGeometry>
        </mxCell>
        <mxCell id="szAG_YBg8i103SoV509M-9" value="OCD" style="shape=hexagon;perimeter=hexagonPerimeter2;whiteSpace=wrap;html=1;fixedSize=1;" parent="1" vertex="1">
          <mxGeometry x="30" y="320" width="120" height="80" as="geometry" />
        </mxCell>
        <mxCell id="szAG_YBg8i103SoV509M-12" style="edgeStyle=orthogonalEdgeStyle;rounded=0;orthogonalLoop=1;jettySize=auto;html=1;" parent="1" source="szAG_YBg8i103SoV509M-11" target="szAG_YBg8i103SoV509M-13" edge="1">
          <mxGeometry relative="1" as="geometry">
            <mxPoint x="400" y="360" as="targetPoint" />
          </mxGeometry>
        </mxCell>
        <mxCell id="szAG_YBg8i103SoV509M-11" value="Detallas pasos de la OCD" style="rounded=0;whiteSpace=wrap;html=1;" parent="1" vertex="1">
          <mxGeometry x="220" y="330" width="120" height="60" as="geometry" />
        </mxCell>
        <mxCell id="szAG_YBg8i103SoV509M-15" value="" style="edgeStyle=orthogonalEdgeStyle;rounded=0;orthogonalLoop=1;jettySize=auto;html=1;" parent="1" source="szAG_YBg8i103SoV509M-13" target="szAG_YBg8i103SoV509M-14" edge="1">
          <mxGeometry relative="1" as="geometry" />
        </mxCell>
        <mxCell id="szAG_YBg8i103SoV509M-13" value="Validación Técnica ( LT )" style="rounded=0;whiteSpace=wrap;html=1;" parent="1" vertex="1">
          <mxGeometry x="380" y="330" width="120" height="60" as="geometry" />
        </mxCell>
        <mxCell id="szAG_YBg8i103SoV509M-17" value="" style="edgeStyle=orthogonalEdgeStyle;rounded=0;orthogonalLoop=1;jettySize=auto;html=1;" parent="1" source="szAG_YBg8i103SoV509M-14" target="szAG_YBg8i103SoV509M-16" edge="1">
          <mxGeometry relative="1" as="geometry" />
        </mxCell>
        <mxCell id="szAG_YBg8i103SoV509M-14" value="Congelamiento" style="rounded=0;whiteSpace=wrap;html=1;" parent="1" vertex="1">
          <mxGeometry x="560" y="330" width="120" height="60" as="geometry" />
        </mxCell>
        <mxCell id="szAG_YBg8i103SoV509M-19" style="edgeStyle=orthogonalEdgeStyle;rounded=0;orthogonalLoop=1;jettySize=auto;html=1;entryX=0;entryY=1;entryDx=0;entryDy=0;" parent="1" source="szAG_YBg8i103SoV509M-16" target="szAG_YBg8i103SoV509M-18" edge="1">
          <mxGeometry relative="1" as="geometry" />
        </mxCell>
        <mxCell id="szAG_YBg8i103SoV509M-16" value="Pruebas QA" style="rounded=0;whiteSpace=wrap;html=1;" parent="1" vertex="1">
          <mxGeometry x="560" y="470" width="120" height="60" as="geometry" />
        </mxCell>
        <mxCell id="szAG_YBg8i103SoV509M-18" value="Reversión" style="rounded=0;whiteSpace=wrap;html=1;" parent="1" vertex="1">
          <mxGeometry x="720" y="330" width="120" height="60" as="geometry" />
        </mxCell>
        <mxCell id="szAG_YBg8i103SoV509M-20" value="Pruebas QA" style="rounded=0;whiteSpace=wrap;html=1;" parent="1" vertex="1">
          <mxGeometry x="730" y="480" width="120" height="60" as="geometry" />
        </mxCell>
        <mxCell id="szAG_YBg8i103SoV509M-21" style="edgeStyle=orthogonalEdgeStyle;rounded=0;orthogonalLoop=1;jettySize=auto;html=1;entryX=0.425;entryY=0;entryDx=0;entryDy=0;entryPerimeter=0;" parent="1" source="szAG_YBg8i103SoV509M-18" target="szAG_YBg8i103SoV509M-20" edge="1">
          <mxGeometry relative="1" as="geometry" />
        </mxCell>
        <mxCell id="szAG_YBg8i103SoV509M-22" value="Recongelamiento" style="rounded=0;whiteSpace=wrap;html=1;" parent="1" vertex="1">
          <mxGeometry x="890" y="330" width="120" height="60" as="geometry" />
        </mxCell>
        <mxCell id="szAG_YBg8i103SoV509M-23" style="edgeStyle=orthogonalEdgeStyle;rounded=0;orthogonalLoop=1;jettySize=auto;html=1;entryX=0.067;entryY=1.033;entryDx=0;entryDy=0;entryPerimeter=0;" parent="1" source="szAG_YBg8i103SoV509M-20" target="szAG_YBg8i103SoV509M-22" edge="1">
          <mxGeometry relative="1" as="geometry" />
        </mxCell>
        <mxCell id="szAG_YBg8i103SoV509M-27" style="edgeStyle=orthogonalEdgeStyle;rounded=0;orthogonalLoop=1;jettySize=auto;html=1;entryX=0.5;entryY=1;entryDx=0;entryDy=0;" parent="1" source="szAG_YBg8i103SoV509M-24" target="szAG_YBg8i103SoV509M-26" edge="1">
          <mxGeometry relative="1" as="geometry" />
        </mxCell>
        <mxCell id="szAG_YBg8i103SoV509M-24" value="Pruebas QA" style="rounded=0;whiteSpace=wrap;html=1;" parent="1" vertex="1">
          <mxGeometry x="900" y="480" width="120" height="60" as="geometry" />
        </mxCell>
        <mxCell id="szAG_YBg8i103SoV509M-25" style="edgeStyle=orthogonalEdgeStyle;rounded=0;orthogonalLoop=1;jettySize=auto;html=1;entryX=0.433;entryY=-0.017;entryDx=0;entryDy=0;entryPerimeter=0;" parent="1" source="szAG_YBg8i103SoV509M-22" target="szAG_YBg8i103SoV509M-24" edge="1">
          <mxGeometry relative="1" as="geometry" />
        </mxCell>
        <mxCell id="szAG_YBg8i103SoV509M-26" value="Gestion de Pase" style="rounded=0;whiteSpace=wrap;html=1;" parent="1" vertex="1">
          <mxGeometry x="1030" y="330" width="120" height="60" as="geometry" />
        </mxCell>
        <mxCell id="szAG_YBg8i103SoV509M-30" value="" style="edgeStyle=orthogonalEdgeStyle;rounded=0;orthogonalLoop=1;jettySize=auto;html=1;" parent="1" source="szAG_YBg8i103SoV509M-28" target="szAG_YBg8i103SoV509M-29" edge="1">
          <mxGeometry relative="1" as="geometry" />
        </mxCell>
        <mxCell id="szAG_YBg8i103SoV509M-28" value="Agendar Pase" style="shape=step;perimeter=stepPerimeter;whiteSpace=wrap;html=1;fixedSize=1;" parent="1" vertex="1">
          <mxGeometry x="40" y="600" width="120" height="80" as="geometry" />
        </mxCell>
        <mxCell id="szAG_YBg8i103SoV509M-32" value="" style="edgeStyle=orthogonalEdgeStyle;rounded=0;orthogonalLoop=1;jettySize=auto;html=1;" parent="1" source="szAG_YBg8i103SoV509M-29" target="szAG_YBg8i103SoV509M-31" edge="1">
          <mxGeometry relative="1" as="geometry" />
        </mxCell>
        <mxCell id="szAG_YBg8i103SoV509M-29" value="entrar a itopCalendar y agendar el pase" style="whiteSpace=wrap;html=1;" parent="1" vertex="1">
          <mxGeometry x="240" y="610" width="120" height="60" as="geometry" />
        </mxCell>
        <mxCell id="szAG_YBg8i103SoV509M-34" value="" style="edgeStyle=orthogonalEdgeStyle;rounded=0;orthogonalLoop=1;jettySize=auto;html=1;entryX=-0.009;entryY=0.222;entryDx=0;entryDy=0;entryPerimeter=0;" parent="1" source="szAG_YBg8i103SoV509M-31" target="szAG_YBg8i103SoV509M-35" edge="1">
          <mxGeometry relative="1" as="geometry" />
        </mxCell>
        <mxCell id="szAG_YBg8i103SoV509M-31" value="Confirmación de Buzón" style="whiteSpace=wrap;html=1;" parent="1" vertex="1">
          <mxGeometry x="410" y="610" width="120" height="60" as="geometry" />
        </mxCell>
        <mxCell id="szAG_YBg8i103SoV509M-37" value="" style="edgeStyle=orthogonalEdgeStyle;rounded=0;orthogonalLoop=1;jettySize=auto;html=1;" parent="1" source="szAG_YBg8i103SoV509M-33" target="szAG_YBg8i103SoV509M-36" edge="1">
          <mxGeometry relative="1" as="geometry" />
        </mxCell>
        <mxCell id="szAG_YBg8i103SoV509M-39" style="edgeStyle=orthogonalEdgeStyle;rounded=0;orthogonalLoop=1;jettySize=auto;html=1;entryX=0;entryY=0.5;entryDx=0;entryDy=0;" parent="1" source="szAG_YBg8i103SoV509M-33" target="szAG_YBg8i103SoV509M-38" edge="1">
          <mxGeometry relative="1" as="geometry" />
        </mxCell>
        <mxCell id="szAG_YBg8i103SoV509M-33" value="Conformidad LT" style="whiteSpace=wrap;html=1;" parent="1" vertex="1">
          <mxGeometry x="580" y="585" width="120" height="60" as="geometry" />
        </mxCell>
        <mxCell id="szAG_YBg8i103SoV509M-41" style="edgeStyle=orthogonalEdgeStyle;rounded=0;orthogonalLoop=1;jettySize=auto;html=1;entryX=0;entryY=0.5;entryDx=0;entryDy=0;" parent="1" source="szAG_YBg8i103SoV509M-36" target="szAG_YBg8i103SoV509M-40" edge="1">
          <mxGeometry relative="1" as="geometry" />
        </mxCell>
        <mxCell id="szAG_YBg8i103SoV509M-36" value="Conformidad CL DEV" style="whiteSpace=wrap;html=1;" parent="1" vertex="1">
          <mxGeometry x="750" y="585" width="120" height="60" as="geometry" />
        </mxCell>
        <mxCell id="szAG_YBg8i103SoV509M-42" style="edgeStyle=orthogonalEdgeStyle;rounded=0;orthogonalLoop=1;jettySize=auto;html=1;entryX=0;entryY=0.5;entryDx=0;entryDy=0;" parent="1" source="szAG_YBg8i103SoV509M-38" target="szAG_YBg8i103SoV509M-40" edge="1">
          <mxGeometry relative="1" as="geometry" />
        </mxCell>
        <mxCell id="szAG_YBg8i103SoV509M-38" value="Conformidad CL QA" style="whiteSpace=wrap;html=1;" parent="1" vertex="1">
          <mxGeometry x="750" y="640" width="120" height="60" as="geometry" />
        </mxCell>
        <mxCell id="szAG_YBg8i103SoV509M-40" value="Conformidad OPS" style="whiteSpace=wrap;html=1;" parent="1" vertex="1">
          <mxGeometry x="940" y="610" width="120" height="60" as="geometry" />
        </mxCell>
        <mxCell id="szAG_YBg8i103SoV509M-43" value="Preparar archivo PPR" style="rounded=0;whiteSpace=wrap;html=1;" parent="1" vertex="1">
          <mxGeometry x="750" y="740" width="120" height="60" as="geometry" />
        </mxCell>
        <mxCell id="szAG_YBg8i103SoV509M-44" value="Preparar archivo checklist" style="rounded=0;whiteSpace=wrap;html=1;" parent="1" vertex="1">
          <mxGeometry x="750" y="825" width="120" height="60" as="geometry" />
        </mxCell>
        <mxCell id="szAG_YBg8i103SoV509M-45" value="Creas una tablas con los siguientes archivos" style="rounded=0;whiteSpace=wrap;html=1;" parent="1" vertex="1">
          <mxGeometry x="1241" y="330" width="149" height="60" as="geometry" />
        </mxCell>
        <mxCell id="szAG_YBg8i103SoV509M-46" value="" style="whiteSpace=wrap;html=1;aspect=fixed;" parent="1" vertex="1">
          <mxGeometry x="1135" y="430" width="350" height="350" as="geometry" />
        </mxCell>
        <mxCell id="szAG_YBg8i103SoV509M-48" value="Conformidad OPS" style="whiteSpace=wrap;html=1;" parent="1" vertex="1">
          <mxGeometry x="1250" y="440" width="120" height="60" as="geometry" />
        </mxCell>
        <mxCell id="szAG_YBg8i103SoV509M-49" value="Preparar archivo PPR" style="rounded=0;whiteSpace=wrap;html=1;" parent="1" vertex="1">
          <mxGeometry x="1250" y="512" width="120" height="60" as="geometry" />
        </mxCell>
        <mxCell id="szAG_YBg8i103SoV509M-50" value="Preparar archivo checklist" style="rounded=0;whiteSpace=wrap;html=1;" parent="1" vertex="1">
          <mxGeometry x="1250" y="597" width="120" height="60" as="geometry" />
        </mxCell>
        <mxCell id="szAG_YBg8i103SoV509M-51" value="Confirmación de Buzón" style="whiteSpace=wrap;html=1;" parent="1" vertex="1">
          <mxGeometry x="1250" y="680" width="120" height="60" as="geometry" />
        </mxCell>
        <mxCell id="szAG_YBg8i103SoV509M-52" style="edgeStyle=orthogonalEdgeStyle;rounded=0;orthogonalLoop=1;jettySize=auto;html=1;entryX=0.523;entryY=0;entryDx=0;entryDy=0;entryPerimeter=0;" parent="1" source="szAG_YBg8i103SoV509M-45" target="szAG_YBg8i103SoV509M-46" edge="1">
          <mxGeometry relative="1" as="geometry" />
        </mxCell>
      </root>
    </mxGraphModel>
  </diagram>
  <diagram id="B5iLyGu_9V0PhWu1em4m" name="Página-3">
    <mxGraphModel dx="1432" dy="792" grid="1" gridSize="10" guides="1" tooltips="1" connect="1" arrows="1" fold="1" page="1" pageScale="1" pageWidth="827" pageHeight="1169" math="0" shadow="0">
      <root>
        <mxCell id="0" />
        <mxCell id="1" parent="0" />
      </root>
    </mxGraphModel>
  </diagram>
</mxfile>
